<?xml version="1.0" encoding="UTF-8" standalone="no"?>
<svg
   xmlns:dc="http://purl.org/dc/elements/1.1/"
   xmlns:cc="http://creativecommons.org/ns#"
   xmlns:rdf="http://www.w3.org/1999/02/22-rdf-syntax-ns#"
   xmlns:svg="http://www.w3.org/2000/svg"
   xmlns="http://www.w3.org/2000/svg"
   xmlns:sodipodi="http://sodipodi.sourceforge.net/DTD/sodipodi-0.dtd"
   xmlns:inkscape="http://www.inkscape.org/namespaces/inkscape"
   id="svg8"
   version="1.1"
   viewBox="0 0 99.999898 369.35958"
   height="1396.0032"
   width="1558.3777"
   sodipodi:docname="Logo.svg"
   inkscape:version="0.92.1 r15371">
  <sodipodi:namedview
     pagecolor="#ffffff"
     bordercolor="#666666"
     borderopacity="1"
     objecttolerance="10"
     gridtolerance="10"
     guidetolerance="10"
     inkscape:pageopacity="0"
     inkscape:pageshadow="2"
     inkscape:window-width="1920"
     inkscape:window-height="1017"
     id="namedview23"
     showgrid="false"
     inkscape:zoom="0.26708955"
     inkscape:cx="678.00165"
     inkscape:cy="-136.42669"
     inkscape:window-x="-8"
     inkscape:window-y="-8"
     inkscape:window-maximized="1"
     inkscape:current-layer="svg8"
     fit-margin-top="0"
     fit-margin-left="0"
     fit-margin-right="0"
     fit-margin-bottom="0"
     units="px"
     inkscape:pagecheckerboard="true"
     borderlayer="true" />
  <defs
     id="defs2" />
  <metadata
     id="metadata5">
    <rdf:RDF>
      <cc:Work
         rdf:about="">
        <dc:format>image/svg+xml</dc:format>
        <dc:type
           rdf:resource="http://purl.org/dc/dcmitype/StillImage" />
        <dc:title></dc:title>
      </cc:Work>
    </rdf:RDF>
  </metadata>
  <g
     id="g3741"
     transform="translate(-815.95387,-162.41653)">
    <path
       inkscape:transform-center-y="-35.096707"
       inkscape:transform-center-x="-22.91782"
       d="M 691.45037,531.77611 813.0289,162.41653 1072.1144,452.38642 Z"
       inkscape:randomized="0"
       inkscape:rounded="0"
       inkscape:flatsided="true"
       sodipodi:arg2="3.4595828"
       sodipodi:arg1="2.4123853"
       sodipodi:r2="112.25263"
       sodipodi:r1="224.50526"
       sodipodi:cy="382.19302"
       sodipodi:cx="858.86456"
       sodipodi:sides="3"
       id="path3737"
       style="fill:#ff0000;stroke-width:0.26458332"
       sodipodi:type="star" />
    <path
       inkscape:connector-curvature="0"
       style="fill:#010000;stroke-width:0.75746381"
       d="m 884.99811,464.85487 c -6.0322,-0.98114 -8.7901,-2.19519 -11.45613,-5.043 -2.06553,-2.20641 -2.54677,-3.38475 -2.83085,-6.93145 -0.28969,-3.61669 -0.0581,-4.71775 1.5076,-7.16728 1.01743,-1.59177 3.03388,-3.55432 4.48108,-4.3612 l 2.6311,-1.46705 -2.3409,-1.6291 c -3.11705,-2.1692 -3.2141,-3.90196 -0.516,-9.21247 l 2.2643,-4.45652 -2.5445,-3.07766 c -3.01255,-3.64392 -4.5189,-9.23917 -3.91308,-14.53507 1.17821,-10.29978 7.84268,-15.65637 19.49008,-15.66518 3.2754,-0.002 6.6285,0.37456 7.4513,0.83786 0.9896,0.55722 4.2026,0.66877 9.4914,0.32954 l 7.9954,-0.51284 v 2.41144 c 0,2.32664 -0.1537,2.44277 -4.3723,3.30205 l -4.3723,0.8906 0.9897,2.87066 c 2.4029,6.96936 0.8763,15.20503 -3.696,19.93891 -3.8167,3.95155 -7.6956,5.19728 -15.9066,5.10841 -5.418,-0.0587 -6.1415,0.0953 -6.1415,1.30651 0,0.75514 -0.2094,2.45682 -0.4653,3.78152 l -0.4652,2.40854 7.7234,0.005 c 17.4397,0.0101 23.4854,2.965 24.9077,12.17394 1.13,7.31604 -3.0807,14.17521 -10.4554,17.03198 -4.472,1.73231 -14.0145,2.54762 -19.457,1.66239 z m 16.2283,-7.88846 c 3.8998,-1.20972 5.805,-3.83661 5.805,-8.00391 0,-5.97628 -2.6101,-7.27308 -14.6391,-7.27308 h -8.5868 l -2.5311,2.6205 c -1.9192,1.98705 -2.531,3.27595 -2.531,5.33209 0,4.06047 0.671,5.18922 4.0212,6.7645 3.5954,1.69054 13.8175,2.00054 18.4618,0.5599 z m -3.7768,-38.06481 c 5.9998,-3.21231 5.7881,-16.83773 -0.3124,-20.10394 -3.4497,-1.84693 -11.0785,-1.13665 -13.5435,1.26095 -5.1128,4.97291 -3.8008,16.81038 2.1384,19.29491 2.6205,1.09624 9.3076,0.83833 11.7175,-0.45192 z m -69.12224,22.81022 c -7.03138,-1.72963 -10.66413,-8.45312 -8.98124,-16.62253 1.46129,-7.09373 7.0487,-10.12016 20.12894,-10.9029 l 8.00254,-0.47888 v -4.00627 c 0,-5.42326 -1.22057,-8.67747 -3.76585,-10.04019 -2.16673,-1.16007 -9.13199,-1.50635 -13.23018,-0.65774 -2.03837,0.42208 -2.34816,0.85104 -2.78306,3.85367 -0.46254,3.19343 -0.62193,3.37871 -2.90663,3.37871 -2.36018,0 -2.42835,-0.0956 -2.8867,-4.04635 -0.84197,-7.25754 -0.83764,-7.26975 3.05363,-8.59523 9.00691,-3.06802 19.34247,-3.13984 24.45626,-0.16995 5.38653,3.12828 5.83055,4.82955 6.25118,23.95175 l 0.37222,16.92073 3.3499,0.83851 c 3.02323,0.75676 3.37265,1.07964 3.58317,3.31104 l 0.23328,2.4725 -6.00255,0.11561 c -3.30141,0.0636 -6.39337,0.15029 -6.87105,0.19268 -0.47766,0.0424 -1.17419,-0.96341 -1.54782,-2.23512 -0.37363,-1.27171 -0.82063,-2.77502 -0.99332,-3.34069 -0.22097,-0.72381 -1.42286,-0.18573 -4.05717,1.81639 -3.56615,2.71031 -9.27455,5.08328 -11.82039,4.91371 -0.65144,-0.0434 -2.26476,-0.34465 -3.58516,-0.66945 z m 11.22575,-8.01868 c 1.34728,-0.58282 3.68145,-2.17949 5.18705,-3.54814 2.45368,-2.23051 2.73744,-2.87965 2.73744,-6.26228 v -3.77383 h -6.72371 c -10.1904,0 -13.3757,1.92348 -13.3757,8.07706 0,5.66113 5.77768,8.2746 12.17492,5.50719 z m 100.16069,8.02474 c -9.6992,-1.80734 -15.3708,-9.55789 -16.1224,-22.03221 -0.5285,-8.76963 1.4799,-15.62245 6.1568,-21.00816 4.7763,-5.5002 8.8825,-7.37628 16.04,-7.32857 7.0223,0.0468 11.9912,2.45337 15.0064,7.26797 2.2082,3.52589 3.8487,11.77876 3.1299,15.74566 l -0.4826,2.66339 h -5.3826 c -2.9605,0 -9.958,0.22718 -15.5501,0.50485 l -10.1674,0.50486 0.016,2.77076 c 0.033,5.65034 4.7103,12.44012 9.4104,13.66145 3.5598,0.92504 11.328,-0.24361 15.3473,-2.30883 l 3.8863,-1.9969 1.2851,1.71729 c 0.7068,0.94451 1.1864,2.06411 1.0657,2.48802 -0.3326,1.16882 -7.9479,5.72326 -10.9885,6.57184 -4.2315,1.18094 -8.9372,1.47055 -12.6506,0.77858 z m 15.7051,-33.19474 c 0,-2.66078 -1.9503,-6.56931 -4.1902,-8.39759 -1.8311,-1.49458 -2.8313,-1.70431 -6.9802,-1.46364 -3.3133,0.19219 -5.4847,0.76317 -6.8751,1.80783 -1.9483,1.46387 -5.0316,6.79923 -5.0316,8.70686 0,0.66394 3.1455,0.91276 11.5386,0.91276 11.103,0 11.5385,-0.0591 11.5385,-1.56622 z m 29.8643,33.04051 c -4.55,-1.08239 -9.7453,-6.56829 -11.4607,-12.10178 -1.635,-5.27408 -1.7107,-16.82668 -0.1461,-22.28154 3.4423,-12.0012 14.1005,-17.81956 28.10859,-15.34467 l 3.5617,0.62926 -0.2118,-8.33258 -0.2118,-8.33258 -3.7221,-0.81167 c -3.44859,-0.75203 -3.73929,-0.99302 -3.95539,-3.27964 l -0.2333,-2.46795 6.56089,-0.0105 c 3.6085,-0.006 7.311,-0.21868 8.2278,-0.47308 l 1.6668,-0.46255 0.1942,32.99983 0.1942,32.99984 3.3499,0.83983 c 3.0229,0.75786 3.3726,1.08119 3.5831,3.31234 l 0.2333,2.47251 -6.3747,0.11561 c -3.5062,0.0636 -6.7935,0.15029 -7.3053,0.19268 -0.5265,0.0436 -1.0319,-1.0106 -1.1638,-2.42781 -0.2723,-2.92404 -0.7478,-3.05807 -3.345,-0.9429 -4.34209,3.53624 -11.71919,5.09457 -17.55049,3.70738 z m 12.8089,-7.52993 c 1.0048,-0.39551 3.03649,-1.81876 4.51499,-3.16277 l 2.6882,-2.44367 v -14.11896 -14.11895 l -2.6676,-0.91149 c -4.07569,-1.39266 -13.17969,-0.68007 -15.71909,1.23037 -8.4253,6.3385 -7.8567,29.86392 0.8095,33.4892 2.14,0.89525 8.1386,0.91622 10.374,0.0363 z m -338.06786,4.79799 c 0.21753,-2.6905 0.42707,-2.90689 3.58095,-3.69785 l 3.34989,-0.84013 v -25.74584 -25.74583 l -3.34989,-0.83998 c -2.97597,-0.74621 -3.37496,-1.10239 -3.57441,-3.19078 l -0.2245,-2.35081 10.64641,-0.50424 c 5.85553,-0.27734 15.92252,-0.50552 22.37108,-0.50707 l 11.72466,-0.003 v 8.0927 8.0927 h -2.62884 c -1.44587,0 -2.76929,-0.43354 -2.94094,-0.96342 -0.17165,-0.52987 -0.67654,-2.43744 -1.12196,-4.23903 l -0.80987,-3.27561 H 686.6536 676.26037 v 10.01953 10.01953 h 10.42192 10.42192 v 3.85367 3.85366 h -10.42192 -10.42192 v 11.561 11.561 h 11.06949 11.06949 l 0.87874,-4.6244 c 0.87078,-4.58253 0.90199,-4.6244 3.44675,-4.6244 h 2.56802 v 8.47807 8.47806 h -22.74983 -22.74982 z m 54.94611,0.27165 c 0,-2.46851 0.17765,-2.63525 3.90822,-3.66783 l 3.90822,-1.08176 v -17.71458 -17.71457 l -3.72212,-0.8131 c -3.44825,-0.75329 -3.73928,-0.99469 -3.95538,-3.28107 l -0.23328,-2.46796 6.37477,-0.11561 c 3.50611,-0.0636 6.79349,-0.15029 7.30528,-0.19268 0.54515,-0.0452 1.08892,1.19973 1.31297,3.00586 0.39917,3.21774 1.40859,3.64484 3.71189,1.57057 1.93894,-1.74614 7.1881,-4.20218 10.74491,-5.02745 6.8574,-1.59109 12.76694,0.88355 15.61734,6.53981 1.39217,2.76259 1.59227,4.79827 1.92581,19.59089 l 0.37221,16.50795 3.1638,1.09046 c 2.89928,0.99929 3.1638,1.31063 3.1638,3.72379 v 2.63334 h -10.42192 -10.42192 v -2.58065 c 0,-2.2951 0.32948,-2.71465 2.97769,-3.79166 l 2.97769,-1.21102 v -14.34531 c 0,-19.07471 -0.86744,-21.23242 -8.53583,-21.23242 -4.28168,0 -8.24744,1.6782 -11.37748,4.81466 l -2.41937,2.42432 v 14.16938 14.16937 l 2.97769,1.21102 c 2.64821,1.07701 2.97769,1.49656 2.97769,3.79166 v 2.58065 H 726.1367 714.97036 Z m 61.04267,0.0238 c 0,-2.38334 0.24691,-2.64165 3.536,-3.69919 l 3.53601,-1.13692 v -17.6518 -17.65181 l -3.3499,-0.83998 c -3.02287,-0.75797 -3.37267,-1.08135 -3.58317,-3.31248 l -0.23328,-2.47251 5.44423,-0.0105 c 2.99433,-0.006 6.15573,-0.20822 7.02532,-0.44984 1.39776,-0.38838 1.64042,-0.0297 2.09278,3.09345 0.57025,3.93715 1.05289,4.24856 3.04769,1.96643 3.60314,-4.12214 9.41239,-6.38086 14.58419,-5.67055 5.21087,0.71568 5.21325,0.71989 4.65381,8.25513 l -0.49661,6.68906 h -2.42581 c -2.34642,0 -2.44255,-0.1261 -2.93772,-3.85366 -0.49196,-3.7034 -0.60354,-3.85301 -2.86144,-3.83674 -3.14285,0.0227 -7.83407,2.3522 -10.36935,5.14919 l -2.06445,2.27755 0.20339,14.18293 0.2034,14.18293 4.65264,1.11222 c 4.55937,1.08992 4.65264,1.1636 4.65264,3.67576 v 2.56355 h -12.65519 -12.65518 z m 69.24783,-63.16644 c -2.24279,-0.94076 -4.08524,-1.93925 -4.09432,-2.21888 -0.009,-0.27961 3.16589,-3.35827 7.0555,-6.84147 8.92367,-7.99125 9.82679,-9.90712 6.36142,-13.49496 -3.10099,-3.21059 -4.85595,-2.5429 -13.493,5.13355 -6.58534,5.85292 -8.06387,6.84975 -8.85959,5.97318 -0.5253,-0.57869 -2.85079,-4.17363 -5.16776,-7.98876 l -4.21268,-6.9366 3.19441,-2.83682 c 7.56873,-6.72147 16.08306,-10.52586 25.14528,-11.23545 4.795,-0.37547 5.86509,-0.73503 7.63202,-2.56441 2.56806,-2.65881 2.60492,-4.83002 0.12559,-7.39697 -1.81233,-1.87639 -2.25305,-1.97227 -7.25812,-1.579 -11.08888,0.87129 -21.76581,5.18511 -30.08709,12.15615 l -4.58081,3.83751 -3.07941,-4.69491 c -5.61484,-8.56044 -6.92462,-12.4505 -6.98357,-20.74129 -0.0482,-6.78909 0.10024,-7.56362 1.995,-10.4043 1.12594,-1.68805 2.04717,-3.35863 2.04717,-3.71242 0,-0.35377 -0.92123,-1.89809 -2.04717,-3.43181 -1.9207,-2.61631 -2.04237,-3.24522 -1.96965,-10.18082 0.0891,-8.4946 0.91522,-10.95294 7.18155,-21.36973 l 3.90728,-6.49525 3.34892,0.50552 c 4.88334,0.73714 9.8743,2.88829 14.03121,6.04759 4.47055,3.39767 6.88335,6.59667 10.17244,13.4871 2.53545,5.31161 3.53248,6.25309 6.622,6.25309 2.19661,0 4.90763,-3.057 4.90763,-5.53394 0,-1.08146 -1.23017,-4.52741 -2.73371,-7.65765 -5.0525,-10.51888 -17.27361,-20.8731 -26.82663,-22.72859 -1.34742,-0.26171 -2.44984,-0.77325 -2.44984,-1.13676 0,-0.60913 6.23989,-11.09439 7.4397,-12.50137 0.28926,-0.33921 4.27416,2.69555 8.85532,6.74391 9.07541,8.01992 10.77685,8.68992 13.88794,5.46886 3.44455,-3.56628 2.28989,-5.91648 -6.80442,-13.84983 -3.85068,-3.35911 -7.00124,-6.366 -7.00124,-6.68198 0,-0.31597 1.7587,-1.19799 3.90822,-1.96005 2.8497,-1.01028 6.22687,-1.39237 12.46908,-1.41073 8.7855,-0.0258 11.59484,0.61886 15.819,3.63018 l 2.04718,1.45938 v 71.95091 71.95093 l -4.58546,2.37236 c -4.34124,2.24601 -5.04493,2.37109 -13.21351,2.34868 -7.15567,-0.0197 -9.32396,-0.31558 -12.70588,-1.73415 z m 11.79888,-66.14777 c 4.01503,-1.44912 5.07579,-5.75481 2.19888,-8.92538 -1.378,-1.51864 -2.35637,-1.78381 -6.5815,-1.78381 -12.16214,0 -20.13112,-6.35893 -21.3528,-17.03869 -0.74278,-6.49323 -4.82319,-9.44772 -8.9325,-6.46772 -0.87754,0.63639 -1.80678,2.15287 -2.06498,3.36996 -0.53939,2.54262 1.2558,11.33521 3.04618,14.91979 2.08681,4.17807 8.65554,10.68517 13.16662,13.04309 6.10129,3.18912 15.86922,4.56136 20.5201,2.88276 z m 33.71327,65.53324 -4.5854,-2.37236 v -71.95091 -71.95091 l 2.0472,-1.43884 c 3.5754,-2.51297 6.1996,-3.34355 12.0145,-3.80266 6.1122,-0.48259 15.4772,0.70069 18.4929,2.33663 1.8658,1.01215 1.8599,1.02028 -5.7373,7.83135 -4.1828,3.74999 -7.9002,7.62166 -8.2608,8.60374 -1.3277,3.61544 2.4781,7.89454 6.1382,6.90156 0.9528,-0.25848 5.2497,-3.59464 9.5488,-7.41369 4.299,-3.81905 8.033,-6.94676 8.2977,-6.95046 0.5603,-0.008 7.7073,11.63872 7.7073,12.55974 0,0.34105 -2.1774,1.38154 -4.8387,2.3122 -9.195,3.21547 -15.8254,8.3748 -21.4844,16.71768 -1.9311,2.84704 -4.1526,7.13027 -4.9366,9.51828 -1.4194,4.32333 -1.4189,4.35092 0.1023,6.46976 1.6864,2.34897 5.578,3.25301 7.3711,1.71235 0.5799,-0.49837 2.2132,-3.4004 3.6295,-6.44898 4.4772,-9.63746 14.4587,-17.4019 23.879,-18.5751 l 3.7221,-0.46355 3.8173,6.40037 c 5.5246,9.2627 6.1061,10.65745 7.0392,16.88386 1.1046,7.37092 0.5994,11.45765 -1.8227,14.74546 -1.079,1.46461 -1.9618,2.98323 -1.9618,3.37468 0,0.39146 0.9081,2.09287 2.018,3.78092 1.8081,2.74977 2.0165,3.75091 2.0027,9.62039 -0.01,4.18707 -0.4902,8.00851 -1.3309,10.58943 -1.2477,3.83027 -8.0961,15.6155 -9.0743,15.6155 -0.2525,0 -1.8901,-1.30061 -3.6392,-2.89025 -7.9245,-7.20218 -19.8475,-12.29205 -30.5474,-13.04057 -5.3784,-0.37627 -6.1176,-0.25654 -7.6303,1.23589 -2.1296,2.10105 -2.2453,6.21428 -0.228,8.10443 0.9237,0.86553 3.4637,1.58989 7.0245,2.00334 7.5661,0.87849 11.1363,1.94844 16.8389,5.04634 5.2428,2.84814 11.9215,8.35863 11.8933,9.81301 -0.01,0.49689 -2.1107,4.26558 -4.6689,8.37486 l -4.6514,7.47141 -4.8225,-4.27956 c -12.5263,-11.11605 -13.9578,-11.83927 -16.9112,-8.54375 -1.5567,1.73703 -1.9361,2.88922 -1.7713,5.37888 0.049,0.73289 3.4381,4.34639 7.5324,8.02999 4.0943,3.68361 7.4443,6.96089 7.4443,7.28285 0,0.32195 -1.8551,1.30395 -4.1223,2.18222 -3.2769,1.26938 -5.8477,1.59684 -12.5363,1.59684 -7.9069,0 -8.6904,-0.14298 -12.9995,-2.37235 z m 30.117,-66.59673 c 10.4915,-3.26907 18.9397,-14.03883 20.1105,-25.63694 0.4377,-4.33572 0.3299,-4.83117 -1.4536,-6.67771 -4.1795,-4.32722 -8.3449,-1.82221 -9.4994,5.71282 -0.8,5.22141 -1.7883,7.38028 -5.0602,11.05353 -3.3417,3.75171 -7.085,5.22042 -14.7921,5.80391 -6.1494,0.46555 -7.2371,0.76496 -8.4601,2.32867 -0.7719,0.98695 -1.4035,2.37251 -1.4035,3.07903 0,1.79248 2.0848,4.68417 3.9879,5.53139 2.0126,0.89596 12.2235,0.15978 16.5705,-1.1947 z"
       id="path3745" />
  </g>
</svg>
